<svg width="110" height="39" viewBox="0 0 110 39" fill="none" xmlns="http://www.w3.org/2000/svg">
<g clip-path="url(#clip0_1_909)">
<path d="M104.887 1.37915H5.1127C2.30128 1.37915 0.0221634 3.65826 0.0221634 6.46969V32.9405C0.0221634 35.7519 2.30128 38.031 5.1127 38.031H104.887C107.699 38.031 109.978 35.7519 109.978 32.9405V6.46969C109.978 3.65826 107.699 1.37915 104.887 1.37915Z" fill="white"/>
<path d="M22.8037 19.9806C22.8037 17.415 24.9164 16.2238 25.0083 16.1322C23.8141 14.3912 21.9769 14.2079 21.3339 14.1163C19.7723 13.933 18.3025 15.0326 17.4758 15.0326C16.6491 15.0326 15.4549 14.1163 14.1689 14.1163C12.5155 14.1163 10.9538 15.1242 10.0352 16.5903C8.28987 19.6141 9.57586 24.1956 11.3212 26.6696C12.148 27.8608 13.1584 29.2352 14.4445 29.2352C15.7304 29.1436 16.1898 28.4105 17.7514 28.4105C19.313 28.4105 19.6804 29.2352 21.0583 29.2352C22.4362 29.2352 23.2629 28.044 24.0896 26.7612C25.1001 25.3868 25.4675 24.0123 25.4675 23.9207C25.4675 24.0123 22.8037 23.0044 22.8037 19.9806Z" fill="black"/>
<path d="M20.2317 12.5581C20.8747 11.7334 21.4259 10.5423 21.2422 9.35107C20.2317 9.35107 19.0376 9.99248 18.3027 10.9087C17.6597 11.6418 17.1086 12.833 17.2922 14.0242C18.3945 14.0242 19.5888 13.3828 20.2317 12.5581Z" fill="black"/>
<path d="M38.8779 26.211H34.5605L33.55 29.3264H31.7128L35.8464 17.9644H37.6836L41.8173 29.3264H39.9802L38.8779 26.211ZM35.0197 24.8366H38.5104L36.7651 19.7969H36.6732L35.0197 24.8366Z" fill="black"/>
<path d="M50.7279 25.2033C50.7279 27.7689 49.3501 29.4183 47.2373 29.4183C46.0431 29.4183 45.1246 28.8685 44.6653 27.9522V32.0755H42.92V21.0799H44.5734V22.4544C45.0327 21.5381 46.0431 20.9883 47.2373 20.9883C49.2582 20.8967 50.7279 22.6377 50.7279 25.2033ZM48.8908 25.2033C48.8908 23.5539 48.064 22.4544 46.6861 22.4544C45.4002 22.4544 44.4815 23.5539 44.4815 25.2033C44.4815 26.8526 45.4002 27.9522 46.6861 27.9522C48.064 27.9522 48.8908 26.8526 48.8908 25.2033Z" fill="black"/>
<path d="M59.8233 25.2033C59.8233 27.7689 58.4455 29.4183 56.3327 29.4183C55.1385 29.4183 54.2199 28.8685 53.7607 27.9522V32.0755H52.0153V21.0799H53.6687V22.4544C54.1281 21.5381 55.1385 20.9883 56.3327 20.9883C58.4455 20.8967 59.8233 22.6377 59.8233 25.2033ZM58.0781 25.2033C58.0781 23.5539 57.2512 22.4544 55.8734 22.4544C54.5874 22.4544 53.6687 23.5539 53.6687 25.2033C53.6687 26.8526 54.5874 27.9522 55.8734 27.9522C57.2512 27.9522 58.0781 26.8526 58.0781 25.2033Z" fill="black"/>
<path d="M65.8857 26.1196C65.9775 27.2191 67.0799 27.9522 68.6414 27.9522C70.1112 27.9522 71.1216 27.2191 71.1216 26.2112C71.1216 25.2949 70.4786 24.8367 69.0089 24.4702L67.5391 24.1037C65.4263 23.5539 64.5078 22.6376 64.5078 21.0799C64.5078 19.1557 66.2532 17.7812 68.6414 17.7812C71.0298 17.7812 72.6832 19.1557 72.7751 21.0799H71.0298C70.938 19.9804 70.0193 19.2473 68.6414 19.2473C67.2635 19.2473 66.345 19.9804 66.345 20.9883C66.345 21.813 66.988 22.2711 68.4578 22.6376L69.7437 22.9125C72.0403 23.4623 73.0506 24.3786 73.0506 26.0279C73.0506 28.1354 71.3054 29.5099 68.6414 29.5099C66.0694 29.5099 64.416 28.227 64.324 26.1196H65.8857Z" fill="black"/>
<path d="M76.5414 19.064V20.9882H78.103V22.3626H76.5414V26.9441C76.5414 27.6772 76.817 27.952 77.5519 27.952C77.7356 27.952 78.0112 27.952 78.103 27.952V29.3265C77.9193 29.4181 77.5519 29.4181 77.1845 29.4181C75.531 29.4181 74.888 28.7767 74.888 27.219V22.4543H73.6938V21.0798H74.888V19.1556H76.5414V19.064Z" fill="black"/>
<path d="M79.1125 25.2028C79.1125 22.6371 80.6741 20.9878 83.0624 20.9878C85.4508 20.9878 87.0123 22.6371 87.0123 25.2028C87.0123 27.86 85.4508 29.4177 83.0624 29.4177C80.5822 29.4177 79.1125 27.7684 79.1125 25.2028ZM85.267 25.2028C85.267 23.3702 84.4402 22.3622 83.0624 22.3622C81.6845 22.3622 80.8578 23.3702 80.8578 25.2028C80.8578 27.0354 81.6845 28.0433 83.0624 28.0433C84.4402 28.0433 85.267 26.9437 85.267 25.2028Z" fill="black"/>
<path d="M88.3908 20.9878H90.0443V22.4539C90.3198 21.5376 91.0547 20.9878 92.0651 20.9878C92.341 20.9878 92.5242 20.9878 92.6168 21.0794V22.6371C92.5242 22.5455 92.1568 22.5455 91.8819 22.5455C90.7792 22.5455 90.1361 23.2785 90.1361 24.4697V29.4177H88.3908V20.9878Z" fill="black"/>
<path d="M100.516 26.8522C100.333 28.3182 98.7706 29.4178 96.9334 29.4178C94.5456 29.4178 92.9842 27.7685 92.9842 25.2028C92.9842 22.6372 94.4539 20.8962 96.8418 20.8962C99.138 20.8962 100.608 22.4539 100.608 25.0196V25.5694H94.7288V25.661C94.7288 27.0354 95.6479 28.0434 96.9334 28.0434C97.8525 28.0434 98.5873 27.5852 98.8632 26.8522H100.516ZM94.7288 24.3782H98.8632C98.8632 23.0954 98.0357 22.2707 96.8418 22.2707C95.6479 22.2707 94.8214 23.187 94.7288 24.3782Z" fill="black"/>
<path d="M36.2326 13.5353V14.2279H32.4987V13.5353H36.2326ZM32.7144 13.5353V15.4736H31.8793L31.848 13.5353H32.7144ZM36.9077 13.5353L36.8555 15.4702H36.0343V13.5353H36.9077ZM35.6201 9.16115V9.85712H33.2817V9.16115H35.6201ZM36.2883 9.16115V14.2279H35.4183V9.16115H36.2883ZM33.1077 9.16115H33.9812L33.8594 11.2143C33.8408 11.539 33.8072 11.8313 33.7584 12.0912C33.7097 12.351 33.6506 12.5841 33.5809 12.7906C33.5136 12.9948 33.4371 13.1757 33.3513 13.3336C33.2654 13.4889 33.1738 13.6235 33.0764 13.7371C32.9789 13.8509 32.8792 13.9483 32.7771 14.0294C32.6774 14.1083 32.5787 14.1745 32.4813 14.2279H32.015V13.5353H32.2412C32.3038 13.4773 32.3735 13.3938 32.45 13.2848C32.5266 13.1734 32.6008 13.0284 32.6727 12.8498C32.7469 12.6688 32.8119 12.4449 32.8676 12.1782C32.9232 11.9114 32.9615 11.5901 32.9824 11.2143L33.1077 9.16115ZM41.5254 11.5553V11.8337C41.5254 12.2165 41.4756 12.5598 41.3759 12.8637C41.2761 13.1676 41.1334 13.4263 40.9479 13.6397C40.7645 13.8532 40.5442 14.0167 40.2866 14.1304C40.0291 14.2417 39.7438 14.2974 39.4306 14.2974C39.1198 14.2974 38.8355 14.2417 38.578 14.1304C38.3229 14.0167 38.1013 13.8532 37.9134 13.6397C37.7255 13.4263 37.5794 13.1676 37.4749 12.8637C37.3729 12.5598 37.3218 12.2165 37.3218 11.8337V11.5553C37.3218 11.1725 37.3729 10.8303 37.4749 10.5287C37.577 10.2248 37.7209 9.96616 37.9064 9.75272C38.0943 9.53697 38.3159 9.37342 38.5711 9.26206C38.8286 9.14839 39.1127 9.09155 39.4237 9.09155C39.7368 9.09155 40.0222 9.14839 40.2797 9.26206C40.5372 9.37342 40.7587 9.53697 40.9443 9.75272C41.1299 9.96616 41.2726 10.2248 41.3723 10.5287C41.4744 10.8303 41.5254 11.1725 41.5254 11.5553ZM40.652 11.8337V11.5483C40.652 11.2653 40.6242 11.0159 40.5685 10.8002C40.5152 10.5821 40.4352 10.4 40.3285 10.2538C40.224 10.1054 40.0953 9.99399 39.9422 9.91975C39.7891 9.8432 39.6162 9.80492 39.4237 9.80492C39.2311 9.80492 39.0594 9.8432 38.9086 9.91975C38.7578 9.99399 38.629 10.1054 38.5223 10.2538C38.418 10.4 38.338 10.5821 38.2823 10.8002C38.2266 11.0159 38.1988 11.2653 38.1988 11.5483V11.8337C38.1988 12.1167 38.2266 12.3673 38.2823 12.5853C38.338 12.8034 38.4191 12.9878 38.5258 13.1386C38.6348 13.2871 38.7647 13.3996 38.9156 13.4762C39.0664 13.5504 39.2381 13.5876 39.4306 13.5876C39.6255 13.5876 39.7983 13.5504 39.9491 13.4762C40.0999 13.3996 40.2275 13.2871 40.3319 13.1386C40.4363 12.9878 40.5152 12.8034 40.5685 12.5853C40.6242 12.3673 40.652 12.1167 40.652 11.8337ZM45.3916 12.5784H46.2616C46.2337 12.9101 46.1409 13.2059 45.9832 13.4657C45.8254 13.7233 45.6039 13.9262 45.3185 14.0747C45.0331 14.2232 44.6864 14.2974 44.2781 14.2974C43.9648 14.2974 43.683 14.2417 43.4325 14.1304C43.1819 14.0167 42.9673 13.8567 42.7887 13.6502C42.61 13.4414 42.4732 13.1897 42.378 12.8951C42.2853 12.6004 42.2388 12.271 42.2388 11.9068V11.4857C42.2388 11.1215 42.2864 10.792 42.3816 10.4974C42.479 10.2028 42.6182 9.95108 42.7991 9.74229C42.98 9.53117 43.197 9.36994 43.4499 9.25858C43.705 9.14723 43.9915 9.09155 44.3094 9.09155C44.713 9.09155 45.0541 9.16579 45.3325 9.31426C45.6108 9.46273 45.8265 9.66805 45.9797 9.9302C46.1351 10.1924 46.2302 10.4928 46.265 10.8314H45.3951C45.3719 10.6134 45.3209 10.4267 45.2419 10.2712C45.1654 10.1158 45.0518 9.99748 44.901 9.91628C44.7502 9.83277 44.553 9.791 44.3094 9.791C44.1098 9.791 43.9358 9.82812 43.7874 9.90236C43.6389 9.97659 43.5148 10.0856 43.4151 10.2295C43.3153 10.3733 43.2399 10.5508 43.1888 10.7619C43.1402 10.9707 43.1157 11.2097 43.1157 11.4788V11.9068C43.1157 12.1619 43.1378 12.3939 43.1819 12.6028C43.2283 12.8092 43.2979 12.9867 43.3907 13.1351C43.4858 13.2837 43.6065 13.3985 43.7526 13.4796C43.8988 13.5609 44.0739 13.6014 44.2781 13.6014C44.5263 13.6014 44.727 13.562 44.8801 13.4831C45.0355 13.4043 45.1527 13.2895 45.2316 13.1386C45.3127 12.9856 45.3661 12.7987 45.3916 12.5784ZM49.035 9.16115V14.2279H48.1685V9.16115H49.035ZM50.6253 9.16115V9.85712H46.5922V9.16115H50.6253ZM52.8733 12.4636L54.1609 9.16115H55.1248L53.364 13.3091C53.3083 13.4368 53.2445 13.5609 53.1726 13.6814C53.103 13.7998 53.0183 13.9053 52.9186 13.9982C52.8188 14.0909 52.6982 14.1651 52.5566 14.2208C52.4151 14.2742 52.2435 14.3009 52.0416 14.3009C51.9882 14.3009 51.9233 14.2986 51.8467 14.2939C51.7725 14.2894 51.718 14.2847 51.6832 14.28L51.6901 13.5945C51.718 13.5992 51.7644 13.6026 51.8293 13.605C51.8966 13.6072 51.9454 13.6084 51.9755 13.6084C52.1101 13.6084 52.2168 13.5863 52.2957 13.5423C52.3745 13.4959 52.4371 13.4344 52.4835 13.3579C52.5323 13.279 52.5752 13.1932 52.6123 13.1003L52.8733 12.4636ZM51.9059 9.16115L53.1795 11.9659L53.4301 12.8776L52.7515 12.902L50.9524 9.16115H51.9059ZM59.7982 9.16115V14.2279H58.9283V9.85712H56.6768V14.2279H55.8069V9.16115H59.7982ZM64.1968 11.2769V11.9694H61.5068V11.2769H64.1968ZM61.7226 9.16115V14.2279H60.8491V9.16115H61.7226ZM64.8684 9.16115V14.2279H63.9985V9.16115H64.8684ZM69.949 11.5553V11.8337C69.949 12.2165 69.8991 12.5598 69.7993 12.8637C69.6997 13.1676 69.5569 13.4263 69.3713 13.6397C69.1881 13.8532 68.9676 14.0167 68.7102 14.1304C68.4527 14.2417 68.1673 14.2974 67.8541 14.2974C67.5432 14.2974 67.259 14.2417 67.0016 14.1304C66.7463 14.0167 66.5248 13.8532 66.3369 13.6397C66.149 13.4263 66.0028 13.1676 65.8984 12.8637C65.7963 12.5598 65.7453 12.2165 65.7453 11.8337V11.5553C65.7453 11.1725 65.7963 10.8303 65.8984 10.5287C66.0006 10.2248 66.1443 9.96616 66.3299 9.75272C66.5179 9.53697 66.7394 9.37342 66.9945 9.26206C67.2521 9.14839 67.5363 9.09155 67.8472 9.09155C68.1604 9.09155 68.4457 9.14839 68.7032 9.26206C68.9607 9.37342 69.1822 9.53697 69.3679 9.75272C69.5535 9.96616 69.6961 10.2248 69.7959 10.5287C69.898 10.8303 69.949 11.1725 69.949 11.5553ZM69.0756 11.8337V11.5483C69.0756 11.2653 69.0478 11.0159 68.9921 10.8002C68.9387 10.5821 68.8586 10.4 68.7519 10.2538C68.6475 10.1054 68.5187 9.99399 68.3656 9.91975C68.2125 9.8432 68.0397 9.80492 67.8472 9.80492C67.6546 9.80492 67.4829 9.8432 67.3321 9.91975C67.1814 9.99399 67.0526 10.1054 66.9459 10.2538C66.8415 10.4 66.7614 10.5821 66.7058 10.8002C66.6501 11.0159 66.6222 11.2653 66.6222 11.5483V11.8337C66.6222 12.1167 66.6501 12.3673 66.7058 12.5853C66.7614 12.8034 66.8426 12.9878 66.9493 13.1386C67.0584 13.2871 67.1883 13.3996 67.3391 13.4762C67.4898 13.5504 67.6616 13.5876 67.8541 13.5876C68.049 13.5876 68.2219 13.5504 68.3727 13.4762C68.5234 13.3996 68.651 13.2871 68.7554 13.1386C68.8598 12.9878 68.9387 12.8034 68.9921 12.5853C69.0478 12.3673 69.0756 12.1167 69.0756 11.8337ZM74.4972 11.938H73.2061L73.1992 11.3013H74.3267C74.5169 11.3013 74.6781 11.2734 74.8104 11.2177C74.9449 11.1598 75.047 11.0774 75.1166 10.9707C75.1861 10.8617 75.221 10.7306 75.221 10.5775C75.221 10.4081 75.1885 10.2701 75.1235 10.1633C75.0586 10.0566 74.9588 9.97891 74.8243 9.9302C74.6921 9.88148 74.5227 9.85712 74.3163 9.85712H73.4706V14.2279H72.5972V9.16115H74.3163C74.5946 9.16115 74.8428 9.18782 75.0609 9.24118C75.2813 9.29454 75.4681 9.37806 75.6212 9.49173C75.7766 9.60309 75.8937 9.74461 75.9726 9.91628C76.0539 10.088 76.0944 10.2921 76.0944 10.5287C76.0944 10.7375 76.0445 10.9289 75.9448 11.1029C75.8451 11.2746 75.6977 11.4149 75.5029 11.524C75.308 11.633 75.0656 11.698 74.7755 11.7188L74.4972 11.938ZM74.4589 14.2279H72.9312L73.3244 13.5353H74.4589C74.6561 13.5353 74.8208 13.5029 74.953 13.4379C75.0852 13.3706 75.1839 13.279 75.2489 13.163C75.3162 13.0447 75.3497 12.9067 75.3497 12.7489C75.3497 12.5841 75.3207 12.4415 75.2627 12.3208C75.2048 12.198 75.1131 12.104 74.9878 12.039C74.8626 11.9717 74.699 11.938 74.4972 11.938H73.5158L73.5229 11.3013H74.8L74.9983 11.5414C75.2766 11.5506 75.5052 11.6121 75.6838 11.7259C75.8648 11.8395 75.9993 11.9868 76.0875 12.1677C76.1756 12.3487 76.2197 12.5436 76.2197 12.7524C76.2197 13.0748 76.149 13.3451 76.0074 13.5631C75.8683 13.7812 75.6676 13.9472 75.4054 14.0608C75.1433 14.1722 74.8278 14.2279 74.4589 14.2279Z" fill="black"/>
</g>
<defs>
<clipPath id="clip0_1_909">
<rect width="109.956" height="37.67" fill="white" transform="translate(0.0221634 0.550049)"/>
</clipPath>
</defs>
</svg>
