<svg width="41" height="42" viewBox="0 0 41 42" fill="none" xmlns="http://www.w3.org/2000/svg">
<path d="M25.9092 3.27466C20.0279 3.27466 13.7781 5.29361 13.7781 9.02708V13.6338C13.7781 14.2667 14.2696 14.7875 14.8837 14.7875C15.4903 14.7875 15.9894 14.2747 15.9894 13.6338V12.4321C18.3312 13.9704 22.1931 14.7795 25.9169 14.7795C29.6407 14.7795 33.5027 13.9704 35.8444 12.4321V13.6338C35.8444 14.7555 33.1341 16.5581 28.0283 16.9988C27.4218 17.0469 26.9687 17.6076 27.0225 18.2405C27.0686 18.8415 27.5523 19.2981 28.1205 19.2981C28.1511 19.2981 28.1819 19.2981 28.2126 19.29C31.0842 19.0418 33.948 18.2645 35.8367 17.0068V18.2405C35.8367 19.226 33.8405 20.6361 30.1321 21.317C29.5332 21.4292 29.134 22.0221 29.2414 22.647C29.3335 23.2079 29.8019 23.6004 30.3241 23.6004C30.3854 23.6004 30.4545 23.5924 30.5159 23.5844C32.7579 23.1758 34.5546 22.4947 35.8367 21.6455V22.8473C35.8367 23.8327 33.8405 25.2428 30.1321 25.9238C29.5332 26.036 29.134 26.6288 29.2414 27.2538C29.3335 27.8146 29.8019 28.2072 30.3241 28.2072C30.3854 28.2072 30.4545 28.1992 30.5159 28.1911C32.7579 27.7825 34.5546 27.1015 35.8367 26.2523V27.454C35.8367 28.4394 33.8405 29.8495 30.1321 30.5305C29.5332 30.6427 29.134 31.2356 29.2414 31.8605C29.3335 32.4213 29.8019 32.8139 30.3241 32.8139C30.3854 32.8139 30.4545 32.8058 30.5159 32.7978C32.7579 32.3893 34.5546 31.7082 35.8367 30.859V32.0608C35.8367 33.1824 33.1265 34.985 28.0207 35.4257C27.4141 35.4738 26.9611 36.0346 27.0149 36.6675C27.0609 37.2684 27.5447 37.725 28.1128 37.725C28.1434 37.725 28.1742 37.725 28.2049 37.717C33.1034 37.2924 38.0403 35.3777 38.0403 32.0608V9.03509C38.0403 5.29361 31.7905 3.27466 25.9092 3.27466ZM25.9092 12.5522C19.7822 12.5522 15.8743 10.4532 15.8743 9.01906C15.8743 7.58497 19.7822 5.47788 25.9092 5.47788C32.0361 5.47788 35.9442 7.57696 35.9442 9.01105C35.9442 10.4451 32.0361 12.5522 25.9092 12.5522Z" fill="#FBC100"/>
<path d="M14.8831 17.0869C9.00185 17.0869 2.75204 19.1058 2.75204 22.8393V32.0448C2.75204 35.7862 9.00185 37.7972 14.8831 37.7972C20.7644 37.7972 27.0142 35.7782 27.0142 32.0448V22.8393C27.0142 19.1058 20.7644 17.0869 14.8831 17.0869ZM25.1177 31.9406C25.1177 33.3907 21.1252 35.5058 14.8754 35.5058C8.62564 35.5058 4.64081 33.3907 4.64081 31.9406V30.7068C7.05167 32.2931 11.0442 33.1343 14.8831 33.1343C18.7221 33.1343 22.7069 32.3011 25.1254 30.7068V31.9406H25.1177ZM25.1485 27.3258C25.1485 28.784 21.1483 30.8991 14.8831 30.8991C8.61796 30.8991 4.6101 28.784 4.6101 27.3258V26.084C7.02864 27.6784 11.0288 28.5116 14.8754 28.5116C18.7221 28.5116 22.7223 27.6704 25.1408 26.084V27.3258H25.1485ZM14.8831 26.2923C8.73313 26.2923 4.8174 24.2173 4.8174 22.7913C4.8174 21.3651 8.7408 19.2901 14.8831 19.2901C21.0255 19.2901 24.9488 21.3651 24.9488 22.7913C24.9488 24.2173 21.0255 26.2923 14.8831 26.2923Z" fill="#FBC100"/>
</svg>
