<svg width="17" height="17" viewBox="0 0 17 17" fill="none" xmlns="http://www.w3.org/2000/svg">
<path d="M9.45491 8.49008L13.0809 4.87081C13.2098 4.74198 13.2822 4.56725 13.2822 4.38505C13.2822 4.20287 13.2098 4.02813 13.0809 3.8993C12.9521 3.77047 12.7774 3.69809 12.5952 3.69809C12.4131 3.69809 12.2383 3.77047 12.1095 3.8993L8.49024 7.52538L4.87097 3.8993C4.74214 3.77047 4.56741 3.69809 4.38521 3.69809C4.20302 3.69809 4.02829 3.77047 3.89946 3.8993C3.77063 4.02813 3.69825 4.20287 3.69825 4.38505C3.69825 4.56725 3.77063 4.74198 3.89946 4.87081L7.52554 8.49008L3.89946 12.1093C3.83533 12.1729 3.78444 12.2485 3.7497 12.3319C3.71496 12.4153 3.69708 12.5048 3.69708 12.5951C3.69708 12.6854 3.71496 12.7748 3.7497 12.8582C3.78444 12.9415 3.83533 13.0172 3.89946 13.0808C3.96306 13.1449 4.03873 13.1958 4.1221 13.2305C4.20547 13.2653 4.29489 13.2832 4.38521 13.2832C4.47553 13.2832 4.56496 13.2653 4.64833 13.2305C4.7317 13.1958 4.80737 13.1449 4.87097 13.0808L8.49024 9.45475L12.1095 13.0808C12.1731 13.1449 12.2487 13.1958 12.3321 13.2305C12.4154 13.2653 12.5049 13.2832 12.5952 13.2832C12.6855 13.2832 12.775 13.2653 12.8584 13.2305C12.9417 13.1958 13.0174 13.1449 13.0809 13.0808C13.1451 13.0172 13.196 12.9415 13.2308 12.8582C13.2655 12.7748 13.2833 12.6854 13.2833 12.5951C13.2833 12.5048 13.2655 12.4153 13.2308 12.3319C13.196 12.2485 13.1451 12.1729 13.0809 12.1093L9.45491 8.49008Z" fill="#BABAC0"/>
</svg>
