<svg width="41" height="42" viewBox="0 0 41 42" fill="none" xmlns="http://www.w3.org/2000/svg">
<path d="M30.3535 25.1549C27.5204 24.9626 25.1709 27.4142 25.3552 30.3706C25.5087 32.8141 27.3975 34.7849 29.7393 34.9452C32.5725 35.1295 34.9142 32.6859 34.7376 29.7296C34.5917 27.286 32.6953 25.3072 30.3535 25.1549ZM30.2154 32.742C28.6567 32.8461 27.3591 31.5002 27.4589 29.8658C27.5434 28.5199 28.5876 27.4303 29.8775 27.3421C31.4361 27.238 32.7337 28.5839 32.6339 30.2183C32.5494 31.5643 31.5052 32.6539 30.2154 32.742Z" fill="#FBC100"/>
<path d="M14.2993 25.1549C11.4662 24.9626 9.12438 27.4142 9.30097 30.3706C9.44685 32.8141 11.3433 34.7849 13.685 34.9452C16.5182 35.1375 18.8599 32.6859 18.6833 29.7296C18.5298 27.286 16.641 25.3072 14.2993 25.1549ZM14.1611 32.742C12.6025 32.8461 11.3125 31.5002 11.4047 29.8738C11.4891 28.5279 12.5334 27.4383 13.8156 27.3501C15.3742 27.246 16.6718 28.5919 16.5719 30.2263C16.4952 31.5643 15.4432 32.6538 14.1611 32.742Z" fill="#FBC100"/>
<path d="M18.1463 31.191H26.2464V28.9878H18.1463V31.191Z" fill="#FBC100"/>
<path d="M38.8545 22.1663V28.784C38.8545 30.1139 37.8257 31.1875 36.5511 31.1875H34.1403V28.9843H36.0213C36.4206 28.9843 36.7354 28.6479 36.7354 28.2392V22.4308C36.1825 21.6776 35.6298 20.9165 35.077 20.1634H25.9786C25.3951 20.1634 24.9268 19.6666 24.9268 19.0658V8.6105H7.19085C6.60733 8.6105 6.13898 8.11377 6.13898 7.5129C6.13898 6.90401 6.61501 6.41528 7.19085 6.41528H25.9786C26.5622 6.41528 27.0306 6.91201 27.0306 7.5129V17.2632C27.0306 17.6557 27.33 17.9682 27.7062 17.9682H36.3822L36.7047 18.6331C36.7277 18.6812 36.7585 18.7293 36.7891 18.7693C37.4111 19.6907 38.033 20.604 38.6625 21.5253C38.7854 21.7176 38.8545 21.934 38.8545 22.1663Z" fill="#FBC100"/>
<path d="M6.2615 28.9844H9.59371C10.1772 28.9844 10.6456 29.4811 10.6456 30.082C10.6456 30.6908 10.1695 31.1796 9.59371 31.1796H6.2615C5.67798 31.1796 5.20963 30.6828 5.20963 30.082C5.20963 29.4811 5.67798 28.9844 6.2615 28.9844Z" fill="#FBC100"/>
<path d="M4.86355 21.814H10.5068C11.0903 21.814 11.5587 22.3107 11.5587 22.9116C11.5587 23.5204 11.0826 24.0091 10.5068 24.0091H4.86355C4.28003 24.0091 3.81168 23.5124 3.81168 22.9116C3.804 22.3027 4.28003 21.814 4.86355 21.814Z" fill="#FBC100"/>
<path d="M2.89065 16.959H13.5245C14.108 16.959 14.5764 17.4557 14.5764 18.0566C14.5764 18.6655 14.1004 19.1543 13.5245 19.1543H2.89065C2.30713 19.1543 1.83878 18.6575 1.83878 18.0566C1.8311 17.4477 2.30713 16.959 2.89065 16.959Z" fill="#FBC100"/>
<path d="M4.9096 12.1677H15.0828C15.6663 12.1677 16.1347 12.6645 16.1347 13.2653C16.1347 13.8743 15.6587 14.363 15.0828 14.363H4.9096C4.32608 14.363 3.85773 13.8663 3.85773 13.2653C3.85006 12.6565 4.32608 12.1677 4.9096 12.1677Z" fill="#FBC100"/>
<path d="M36.3812 17.9602H34.0164L31.4367 12.6243H27.0296V10.4211H31.8896C32.4041 10.4211 32.8725 10.7256 33.1105 11.2063L33.8015 12.6243" fill="#FBC100"/>
</svg>
