<svg width="110" height="38" viewBox="0 0 110 38" fill="none" xmlns="http://www.w3.org/2000/svg">
<g clip-path="url(#clip0_1_883)">
<path d="M105 1.69458H5C2.23858 1.69458 0 3.93316 0 6.69458V32.5279C0 35.2893 2.23858 37.5279 5 37.5279H105C107.761 37.5279 110 35.2893 110 32.5279V6.69458C110 3.93316 107.761 1.69458 105 1.69458Z" fill="white"/>
<mask id="mask0_1_883" style="mask-type:luminance" maskUnits="userSpaceOnUse" x="10" y="8" width="90" height="23">
<path d="M100 8.36157H10V30.8616H100V8.36157Z" fill="white"/>
</mask>
<g mask="url(#mask0_1_883)">
<path d="M55.1888 21.0447C53.3632 21.0447 51.8716 22.4691 51.8716 24.4265C51.8716 26.376 53.3632 27.8082 55.1888 27.8082C57.0144 27.8082 58.506 26.376 58.506 24.4265C58.506 22.4691 57.0144 21.0447 55.1888 21.0447ZM55.1888 26.4794C54.1867 26.4794 53.3243 25.6359 53.3243 24.4265C53.3243 23.2091 54.1867 22.3736 55.1888 22.3736C56.191 22.3736 57.0532 23.2091 57.0532 24.4265C57.0532 25.6359 56.1832 26.4794 55.1888 26.4794ZM47.9484 21.0447C46.1228 21.0447 44.6312 22.4691 44.6312 24.4265C44.6312 26.376 46.1228 27.8082 47.9484 27.8082C49.7741 27.8082 51.2657 26.376 51.2657 24.4265C51.2657 22.4691 49.7741 21.0447 47.9484 21.0447ZM47.9484 26.4794C46.9462 26.4794 46.084 25.6359 46.084 24.4265C46.084 23.2091 46.9462 22.3736 47.9484 22.3736C48.9506 22.3736 49.8129 23.2091 49.8129 24.4265C49.8129 25.6359 48.9506 26.4794 47.9484 26.4794ZM39.3407 22.0871V23.5194H42.6968C42.5958 24.3231 42.3317 24.9198 41.9355 25.3257C41.4461 25.8269 40.6847 26.376 39.3486 26.376C37.2821 26.376 35.6662 24.6732 35.6662 22.5566C35.6662 20.44 37.2821 18.7372 39.3486 18.7372C40.4595 18.7372 41.2752 19.1827 41.8733 19.7637L42.86 18.7531C42.021 17.9335 40.9101 17.3049 39.3407 17.3049C36.513 17.3049 34.1357 19.6602 34.1357 22.5645C34.1357 25.4609 36.513 27.8242 39.3407 27.8242C40.8712 27.8242 42.021 27.3149 42.9221 26.3521C43.8466 25.4052 44.134 24.0684 44.134 22.9942C44.134 22.66 44.1107 22.3497 44.0563 22.0951H39.3407V22.0871ZM74.5405 23.2011C74.2686 22.4452 73.4296 21.0447 71.7127 21.0447C70.0114 21.0447 68.5975 22.4133 68.5975 24.4265C68.5975 26.3202 69.9958 27.8082 71.8758 27.8082C73.3907 27.8082 74.2686 26.8613 74.626 26.3123L73.4995 25.5405C73.1266 26.1054 72.6139 26.4794 71.8758 26.4794C71.1378 26.4794 70.6096 26.1292 70.2755 25.4529L74.6959 23.583L74.5405 23.2011ZM70.0347 24.331C69.9958 23.0261 71.0213 22.3577 71.7593 22.3577C72.3342 22.3577 72.8237 22.6521 72.9867 23.0737L70.0347 24.331ZM66.4456 27.6093H67.8983V17.663H66.4456V27.6093ZM64.0684 21.8007H64.014C63.6877 21.4028 63.0662 21.0447 62.2738 21.0447C60.6191 21.0447 59.1042 22.5327 59.1042 24.4424C59.1042 26.3362 60.6191 27.8162 62.2738 27.8162C63.0584 27.8162 63.6877 27.4581 64.014 27.0443H64.0606V27.5297C64.0606 28.8267 63.3847 29.519 62.2971 29.519C61.4115 29.519 60.8599 28.8665 60.6347 28.3175L59.3683 28.8586C59.7335 29.7577 60.6967 30.8557 62.2971 30.8557C63.9985 30.8557 65.4357 29.8293 65.4357 27.3308V21.2516H64.0606V21.8007H64.0684ZM62.3981 26.4794C61.396 26.4794 60.5569 25.62 60.5569 24.4424C60.5569 23.2488 61.396 22.3815 62.3981 22.3815C63.3847 22.3815 64.1616 23.2568 64.1616 24.4424C64.1693 25.62 63.3925 26.4794 62.3981 26.4794ZM81.3458 17.663H77.8732V27.6093H79.326V23.8377H81.3536C82.9617 23.8377 84.5387 22.6441 84.5387 20.7503C84.5387 18.8566 82.9462 17.663 81.3458 17.663ZM81.3769 22.4532H79.3182V19.0396H81.3769C82.4645 19.0396 83.0782 19.9626 83.0782 20.7423C83.0782 21.5222 82.4645 22.4532 81.3769 22.4532ZM90.3419 21.0288C89.2932 21.0288 88.2056 21.5062 87.755 22.5486L89.0446 23.0977C89.3165 22.5486 89.8292 22.3656 90.3652 22.3656C91.111 22.3656 91.8801 22.8271 91.8879 23.6467V23.7502C91.6237 23.5989 91.0644 23.3682 90.373 23.3682C88.9824 23.3682 87.5763 24.148 87.5763 25.6041C87.5763 26.9329 88.7105 27.7923 89.9846 27.7923C90.9557 27.7923 91.4995 27.3467 91.8335 26.8216H91.8802V27.5934H93.2785V23.782C93.2862 22.0155 91.9967 21.0288 90.3419 21.0288ZM90.1632 26.4794C89.6893 26.4794 89.029 26.2327 89.029 25.6359C89.029 24.8721 89.8525 24.5777 90.5672 24.5777C91.2042 24.5777 91.5072 24.7209 91.8879 24.9118C91.7792 25.8269 91.0022 26.4794 90.1632 26.4794ZM98.3826 21.2437L96.7201 25.5564H96.6734L94.9484 21.2437H93.3876L95.9742 27.2751L94.4984 30.625H96.0134L99.9984 21.2437H98.3826ZM85.3312 27.6093H86.7839V17.663H85.3312V27.6093Z" fill="black"/>
<path d="M10.3701 9.73856C10.1448 9.98524 10.0127 10.3672 10.0127 10.8526V28.4535C10.0127 28.9469 10.1448 29.3288 10.3701 29.5674L10.4244 29.6232L20.0498 19.7724V19.653V19.5336L10.4244 9.68286L10.3701 9.73856Z" fill="url(#paint0_linear_1_883)"/>
<path d="M23.2533 23.0634L20.0449 19.7772V19.6578V19.5384L23.2533 16.2522L23.3233 16.292L27.1222 18.504C28.2098 19.1327 28.2098 20.1671 27.1222 20.8036L23.3233 23.0157L23.2533 23.0634Z" fill="url(#paint1_linear_1_883)"/>
<path d="M23.3233 23.0084L20.045 19.6506L10.3652 29.5651C10.7226 29.9549 11.313 30.0027 11.9811 29.6129L23.3233 23.0084Z" fill="url(#paint2_linear_1_883)"/>
<path d="M23.3233 16.3019L11.9733 9.69763C11.3052 9.30773 10.7148 9.35547 10.3574 9.74537L20.0449 19.6598L23.3233 16.3019Z" fill="url(#paint3_linear_1_883)"/>
<path opacity="0.2" d="M23.2534 22.9377L11.9733 29.5023C11.3441 29.8683 10.777 29.8444 10.4196 29.5102L10.3652 29.5659L10.4196 29.6216C10.7847 29.9558 11.3441 29.9797 11.9733 29.6136L23.3233 23.0093L23.2534 22.9377Z" fill="#F7F7F7"/>
<path opacity="0.12" d="M10.3701 29.4629C10.1448 29.2162 10.0127 28.8342 10.0127 28.3489V28.4682C10.0127 28.9615 10.1448 29.3434 10.3701 29.5822L10.4244 29.5265L10.3701 29.4629Z" fill="#F7F7F7"/>
<path opacity="0.12" d="M27.1246 20.685L23.248 22.9369L23.318 23.0085L27.1169 20.7964C27.6606 20.4782 27.9325 20.0644 27.9325 19.6506C27.8937 20.0246 27.6218 20.3986 27.1246 20.685Z" fill="#F7F7F7"/>
<path opacity="0.25" d="M11.9732 9.8051L27.1221 18.6214C27.6115 18.9078 27.8912 19.2738 27.9378 19.6558C27.9378 19.2421 27.6659 18.8203 27.1221 18.51L11.9732 9.6937C10.8856 9.06509 10 9.59026 10 10.8634V10.9827C10 9.70166 10.8934 9.17649 11.9732 9.8051Z" fill="black"/>
<path d="M34.9703 15.1014H34.3955V13.502H34.8538C35.2578 13.144 35.452 12.5392 35.4443 11.6719V9.31665H38.5595V13.502H39.08V15.1014H38.5051V14.0908H34.9703V15.1014ZM36.0503 11.6799C36.058 12.4358 35.9103 13.0405 35.6074 13.51H37.9613V9.90548H36.0503V11.6799Z" fill="black" stroke="black" stroke-width="0.155373" stroke-miterlimit="10"/>
<path d="M43.7503 13.4623C43.2919 13.9477 42.7249 14.1864 42.0412 14.1864C41.3575 14.1864 40.7904 13.9477 40.3321 13.4623C39.8737 12.9769 39.6484 12.3881 39.6484 11.6959C39.6484 11.0036 39.8737 10.4068 40.3321 9.92941C40.7904 9.44403 41.3575 9.20532 42.0412 9.20532C42.717 9.20532 43.2842 9.44403 43.7503 9.92941C44.2086 10.4148 44.4417 11.0036 44.4417 11.6959C44.4417 12.3961 44.2086 12.9849 43.7503 13.4623ZM40.7749 13.0645C41.1167 13.4225 41.544 13.5976 42.0412 13.5976C42.5384 13.5976 42.9656 13.4225 43.3074 13.0645C43.6493 12.7064 43.8279 12.2528 43.8279 11.6959C43.8279 11.1389 43.657 10.6853 43.3074 10.3273C42.9656 9.9692 42.5384 9.79414 42.0412 9.79414C41.544 9.79414 41.1167 9.9692 40.7749 10.3273C40.4331 10.6853 40.2544 11.1389 40.2544 11.6959C40.2544 12.2528 40.4331 12.7064 40.7749 13.0645Z" fill="black" stroke="black" stroke-width="0.155373" stroke-miterlimit="10"/>
<path d="M47.456 14.1838C46.7724 14.1838 46.1975 13.945 45.7314 13.4676C45.2652 12.9902 45.0322 12.4014 45.0322 11.6852C45.0322 10.9691 45.2652 10.3803 45.7314 9.9029C46.1975 9.42548 46.7724 9.18677 47.456 9.18677C48.1552 9.18677 48.7301 9.44935 49.1651 9.96656L48.7456 10.3803C48.4271 9.97452 47.9998 9.7756 47.4482 9.7756C46.9433 9.7756 46.5082 9.95065 46.1586 10.3007C45.8091 10.6509 45.6381 11.1123 45.6381 11.6773C45.6381 12.2422 45.8091 12.7037 46.1586 13.0539C46.5082 13.404 46.9355 13.579 47.4482 13.579C48.0076 13.579 48.4815 13.3483 48.8776 12.8868L49.2971 13.3164C49.0874 13.579 48.8156 13.7859 48.497 13.9371C48.1785 14.1121 47.8289 14.1838 47.456 14.1838Z" fill="black" stroke="black" stroke-width="0.155373" stroke-miterlimit="10"/>
<path d="M51.7226 14.0908H51.1244V9.90548H49.8193V9.31665H53.02V9.90548H51.7148V14.0908H51.7226Z" fill="black" stroke="black" stroke-width="0.155373" stroke-miterlimit="10"/>
<path d="M57.1402 9.31665L55.3767 13.3429C55.1358 13.9078 54.7708 14.1943 54.2891 14.1943C54.1493 14.1943 53.9939 14.1625 53.823 14.0909L53.9783 13.5259C54.0793 13.5816 54.1803 13.6134 54.2891 13.6134C54.4289 13.6134 54.5377 13.5896 54.6154 13.5339C54.6931 13.4782 54.763 13.3747 54.8252 13.2315L54.996 12.8496L53.4268 9.31665H54.1338L55.2835 12.0538H55.3068L56.4333 9.31665H57.1402Z" fill="black" stroke="black" stroke-width="0.155373" stroke-miterlimit="10"/>
<path d="M57.8135 14.0908V9.31665H61.1851V14.0908H60.5868V9.90547H58.4116V14.0908H57.8135Z" fill="black" stroke="black" stroke-width="0.155373" stroke-miterlimit="10"/>
<path d="M62.248 14.0908V9.31665H62.8463V11.3616H65.1769V9.31665H65.775V14.0908H65.1769V11.9345H62.8463V14.0908H62.248Z" fill="black" stroke="black" stroke-width="0.155373" stroke-miterlimit="10"/>
<path d="M70.6673 13.4623C70.2089 13.9477 69.6418 14.1864 68.9582 14.1864C68.2745 14.1864 67.7074 13.9477 67.2491 13.4623C66.7907 12.9769 66.5654 12.3881 66.5654 11.6959C66.5654 11.0036 66.7907 10.4068 67.2491 9.92941C67.7074 9.44403 68.2745 9.20532 68.9582 9.20532C69.634 9.20532 70.2011 9.44403 70.6673 9.92941C71.1256 10.4148 71.3587 11.0036 71.3587 11.6959C71.3509 12.3961 71.1256 12.9849 70.6673 13.4623ZM67.6918 13.0645C68.0337 13.4225 68.4609 13.5976 68.9582 13.5976C69.4553 13.5976 69.8826 13.4225 70.2244 13.0645C70.5663 12.7064 70.7449 12.2528 70.7449 11.6959C70.7449 11.1389 70.574 10.6853 70.2244 10.3273C69.8826 9.9692 69.4553 9.79414 68.9582 9.79414C68.4609 9.79414 68.0337 9.9692 67.6918 10.3273C67.35 10.6853 67.1713 11.1389 67.1713 11.6959C67.1713 12.2528 67.3423 12.7064 67.6918 13.0645Z" fill="black" stroke="black" stroke-width="0.155373" stroke-miterlimit="10"/>
<path d="M73.7969 14.0908V9.31665H75.4827C75.8478 9.31665 76.1663 9.44396 76.4305 9.68268C76.6946 9.92935 76.8345 10.2397 76.8345 10.6137C76.8345 10.8444 76.78 11.0433 76.6635 11.2104C76.547 11.3855 76.3994 11.5128 76.2052 11.6003V11.6242C76.4382 11.7037 76.6247 11.839 76.7723 12.0379C76.9199 12.2369 76.9975 12.4597 76.9975 12.7222C76.9975 13.1121 76.8577 13.4384 76.578 13.693C76.2984 13.9476 75.9644 14.0829 75.5837 14.0829H73.7969V14.0908ZM74.395 11.3616H75.4827C75.708 11.3616 75.8866 11.282 76.0265 11.1308C76.1663 10.9796 76.2285 10.8126 76.2285 10.6296C76.2285 10.4466 76.1663 10.2795 76.0265 10.1283C75.8945 9.97709 75.7235 9.89751 75.506 9.89751H74.395V11.3616ZM74.395 13.502H75.5992C75.8323 13.502 76.0187 13.4225 76.1585 13.2554C76.2984 13.0883 76.376 12.9132 76.376 12.7143C76.376 12.5154 76.3061 12.3403 76.1508 12.1812C76.0032 12.022 75.809 11.9345 75.5681 11.9345H74.3873V13.502H74.395Z" fill="black" stroke="black" stroke-width="0.155373" stroke-miterlimit="10"/>
</g>
</g>
<defs>
<linearGradient id="paint0_linear_1_883" x1="19.195" y1="10.6693" x2="5.845" y2="23.7032" gradientUnits="userSpaceOnUse">
<stop stop-color="#00A0FF"/>
<stop offset="0.00657445" stop-color="#00A1FF"/>
<stop offset="0.2601" stop-color="#00BEFF"/>
<stop offset="0.5122" stop-color="#00D2FF"/>
<stop offset="0.7604" stop-color="#00DFFF"/>
<stop offset="1" stop-color="#00E3FF"/>
</linearGradient>
<linearGradient id="paint1_linear_1_883" x1="28.5395" y1="19.6589" x2="9.74177" y2="19.6589" gradientUnits="userSpaceOnUse">
<stop stop-color="#FFE000"/>
<stop offset="0.4087" stop-color="#FFBD00"/>
<stop offset="0.7754" stop-color="#FFA500"/>
<stop offset="1" stop-color="#FF9C00"/>
</linearGradient>
<linearGradient id="paint2_linear_1_883" x1="21.542" y1="21.4776" x2="3.43829" y2="39.1527" gradientUnits="userSpaceOnUse">
<stop stop-color="#FF3A44"/>
<stop offset="1" stop-color="#C31162"/>
</linearGradient>
<linearGradient id="paint3_linear_1_883" x1="7.92374" y1="3.88596" x2="16.0078" y2="11.7785" gradientUnits="userSpaceOnUse">
<stop stop-color="#32A071"/>
<stop offset="0.0685" stop-color="#2DA771"/>
<stop offset="0.4762" stop-color="#15CF74"/>
<stop offset="0.8009" stop-color="#06E775"/>
<stop offset="1" stop-color="#00F076"/>
</linearGradient>
<clipPath id="clip0_1_883">
<rect width="110" height="37" fill="white" transform="translate(0 0.880127)"/>
</clipPath>
</defs>
</svg>
