<svg width="41" height="41" viewBox="0 0 41 41" fill="none" xmlns="http://www.w3.org/2000/svg">
<path d="M35.811 11.9485V11.9172C35.796 11.5579 35.7886 11.1751 35.7811 10.7454C35.7511 8.67505 34.1714 6.9563 32.1873 6.83911C28.0395 6.59693 24.8351 5.19068 22.0949 2.40161L22.0724 2.37818C21.1815 1.52661 19.8338 1.52661 18.9354 2.37818L18.9129 2.40161C16.1727 5.19849 12.9682 6.60474 8.82046 6.84693C6.83641 6.96411 5.25666 8.67505 5.22671 10.7532C5.21922 11.1751 5.21173 11.5579 5.19676 11.9251V11.9954C5.1144 16.4016 5.01707 21.8938 6.77651 26.8704C7.74233 29.6126 9.20978 31.9876 11.1339 33.9485C13.3201 36.1751 16.1876 37.9485 19.6541 39.2063C19.7664 39.2454 19.8862 39.2844 20.006 39.3079C20.1707 39.3391 20.3429 39.3626 20.5151 39.3626C20.6873 39.3626 20.852 39.3469 21.0242 39.3079C21.144 39.2844 21.2638 39.2532 21.3761 39.2063C24.8351 37.9407 27.7026 36.1751 29.8888 33.9407C31.813 31.9797 33.2729 29.6047 34.2462 26.8626C35.9907 21.8626 35.8934 16.3704 35.811 11.9485ZM32.2846 26.1204C30.4204 31.3938 26.617 35.011 20.6574 37.1829C20.6349 37.1907 20.6125 37.1985 20.59 37.1985C20.5301 37.2141 20.4627 37.2141 20.4028 37.1985C20.3804 37.1907 20.3579 37.1907 20.3354 37.1829C14.3683 35.011 10.5649 31.3938 8.70067 26.1282C7.07599 21.5188 7.16584 16.4641 7.24819 12.0032V11.9797C7.26317 11.5969 7.27814 11.1985 7.27814 10.7532C7.29311 9.8313 7.99689 9.06568 8.88784 9.01099C11.2388 8.87036 13.3126 8.40161 15.2069 7.55786C17.1011 6.72193 18.7931 5.53443 20.3579 3.94849C20.4402 3.87818 20.5376 3.87818 20.6199 3.94849C22.1922 5.54224 23.8768 6.72193 25.771 7.55786C27.6727 8.3938 29.7391 8.87036 32.09 9.01099C32.9809 9.06568 33.6847 9.82349 33.6997 10.7532C33.7072 11.1985 33.7147 11.5969 33.7371 11.9797C33.827 16.4407 33.9168 21.5032 32.2846 26.1204Z" fill="#FBC100"/>
<path d="M20.4997 10.6516C15.2588 10.6516 11.0137 15.0813 11.0137 20.5501C11.0137 26.0188 15.2588 30.4485 20.4997 30.4485C25.7405 30.4485 29.9857 26.0188 29.9857 20.5501C29.9857 15.0813 25.7405 10.6516 20.4997 10.6516ZM20.4997 28.2922C16.4043 28.2922 13.0876 24.8235 13.0876 20.5501C13.0876 16.2766 16.4043 12.8079 20.4997 12.8079C24.595 12.8079 27.9118 16.2688 27.9118 20.5501C27.9118 24.8235 24.595 28.2922 20.4997 28.2922Z" fill="#FBC100"/>
<path d="M18.8833 24.1283C18.479 23.7065 18.479 23.0268 18.8833 22.6127L23.8921 17.3862C24.2964 16.9643 24.9478 16.9643 25.3446 17.3862C25.7489 17.808 25.7489 18.4877 25.3446 18.9018L20.3358 24.1283C19.939 24.5502 19.2876 24.5502 18.8833 24.1283Z" fill="#FBC100"/>
<path d="M16.7271 20.5816C17.0715 20.2222 17.6255 20.2222 17.9699 20.5816L20.0962 22.8003C20.4406 23.1597 20.4406 23.7378 20.0962 24.0972C19.7518 24.4566 19.1978 24.4566 18.8534 24.0972L16.7271 21.8784C16.3826 21.5191 16.3826 20.9409 16.7271 20.5816Z" fill="#FBC100"/>
</svg>
