<svg width="19" height="19" viewBox="0 0 19 19" fill="none" xmlns="http://www.w3.org/2000/svg">
<g clip-path="url(#clip0_1_378)">
<path d="M14.2527 2.71982C13.2947 2.31026 12.1891 2.31026 11.2311 2.71982C10.7521 2.9246 10.317 3.22475 9.95042 3.60313L9.18981 4.38802L8.42915 3.60313C7.68881 2.8392 6.6847 2.41003 5.63771 2.41003C4.59071 2.41003 3.5866 2.8392 2.84626 3.60313C2.10592 4.36706 1.69 5.40318 1.69 6.48354C1.69 10.0489 6.94 14.4096 9.18981 15.9096C11.44 14.4096 15.1821 11.049 16.3894 8.04247C16.7863 7.05401 16.7863 5.91305 16.3894 4.92459C15.9925 3.93613 15.2107 3.12939 14.2527 2.71982Z" stroke="#333333" stroke-width="1.66667" stroke-linecap="round" stroke-linejoin="round"/>
</g>
<defs>
<clipPath id="clip0_1_378">
<rect width="18" height="18" fill="white" transform="translate(0.190002 0.160034)"/>
</clipPath>
</defs>
</svg>
