<svg width="41" height="42" viewBox="0 0 41 42" fill="none" xmlns="http://www.w3.org/2000/svg">
<path d="M35.1457 24.4406C37.4975 22.501 38.8251 19.8888 38.8251 17.1181C38.8251 11.458 33.3628 6.8667 26.6869 6.8667C22.3627 6.8667 18.6075 8.76657 16.4455 11.656C15.9523 11.6164 15.4213 11.5768 14.9282 11.5768C8.25223 11.5768 2.7901 16.1682 2.7901 21.8282C2.7901 24.5989 4.1177 27.2507 6.46945 29.1506C6.27979 29.8235 5.97635 30.4568 5.63496 31.0109C5.10393 31.8421 5.14185 32.9108 5.74876 33.7024C6.09014 34.1774 6.62118 34.5336 7.19015 34.6128C7.30395 34.6128 7.41774 34.6524 7.53154 34.6524C7.75913 34.6524 7.98672 34.6128 8.21431 34.5336C9.69363 34.0586 11.2489 33.1483 12.842 31.8817C13.5626 32.0004 14.2454 32.04 14.9282 32.04C19.2524 32.04 23.0455 30.1402 25.1697 27.2507C25.6628 27.2903 26.1559 27.3299 26.6869 27.3299C27.3697 27.3299 28.0904 27.2903 28.7732 27.1716C30.3663 28.4777 31.9215 29.3485 33.4008 29.8631C33.6285 29.9423 33.856 29.9818 34.0836 29.9818C34.1974 29.9818 34.3111 29.9818 34.425 29.9423C34.9939 29.8631 35.525 29.5068 35.8664 29.0319C36.4353 28.2402 36.4733 27.1716 35.9801 26.3404C35.6387 25.7467 35.3353 25.1134 35.1457 24.4406ZM14.9282 29.8631C14.2074 29.8631 13.4489 29.7839 12.7281 29.6652C12.4247 29.6256 12.1213 29.7048 11.8937 29.9027C10.3764 31.2089 8.89708 32.0796 7.6074 32.4755L7.41774 32.3963C7.37981 32.3171 7.37981 32.2379 7.41774 32.1984C8.02464 31.2089 8.47982 30.1402 8.70741 28.9528C8.78328 28.5173 8.63155 28.0819 8.29016 27.8049C6.09014 26.2612 4.87634 24.0843 4.87634 21.7886C4.87634 17.3556 9.39018 13.7141 14.9282 13.7141C20.4662 13.7141 24.98 17.316 24.98 21.7886C24.98 26.2612 20.4662 29.8631 14.9282 29.8631ZM33.3628 23.0948C33.0215 23.3323 32.8318 23.8072 32.9457 24.2426C33.2112 25.4301 33.6285 26.4987 34.2353 27.4882C34.2733 27.5674 34.2733 27.6466 34.2353 27.6862L34.0456 27.7653C32.718 27.3299 31.2767 26.4592 29.7594 25.1926C29.5697 25.0342 29.3422 24.9551 29.1146 24.9551C29.0387 24.9551 29.0008 24.9551 28.9249 24.9551C28.1662 25.0738 27.4456 25.153 26.7249 25.153C26.6111 25.153 26.5352 25.153 26.4214 25.153C26.8387 24.0843 27.1042 22.976 27.1042 21.7886C27.1042 17.2764 23.6524 13.4766 18.8351 12.0914C20.6937 10.2311 23.5007 9.00406 26.7249 9.00406C32.2629 9.00406 36.7767 12.6059 36.7767 17.0785C36.7388 19.3742 35.525 21.5907 33.3628 23.0948Z" fill="#FBC100"/>
<path d="M14.966 16.2051C12.6521 16.2051 11.59 17.9466 11.3625 19.4507C11.3245 19.6486 11.4004 19.8465 11.5142 20.0049C11.628 20.1631 11.8177 20.2423 12.0073 20.2423H12.8418C13.1453 20.2423 13.4487 20.0049 13.4866 19.6486C13.6384 18.8174 14.1314 18.4216 14.966 18.4216C15.7625 18.4216 16.1039 18.857 16.2556 19.134C16.4453 19.5299 16.4073 19.9653 16.1798 20.2819C15.9522 20.6381 15.7246 20.7964 15.459 20.9944C14.7763 21.5089 14.1694 22.063 14.0556 23.567C14.0556 23.765 14.0936 23.9629 14.2453 24.0816C14.3591 24.24 14.5487 24.3191 14.7384 24.3191H15.497C15.8384 24.3191 16.1418 24.0421 16.1418 23.6858C16.1798 23.1317 16.2936 23.0525 16.635 22.815C16.9764 22.5775 17.4315 22.261 17.8488 21.588C18.5695 20.5985 18.6454 19.2528 18.1143 18.1445C17.5453 16.9175 16.3695 16.2051 14.966 16.2051Z" fill="#FBC100"/>
<path d="M15.0759 27.6465C15.7673 27.6465 16.3278 27.0618 16.3278 26.3404C16.3278 25.619 15.7673 25.0342 15.0759 25.0342C14.3847 25.0342 13.8242 25.619 13.8242 26.3404C13.8242 27.0618 14.3847 27.6465 15.0759 27.6465Z" fill="#FBC100"/>
</svg>
