<svg width="40" height="41" viewBox="0 0 40 41" fill="none" xmlns="http://www.w3.org/2000/svg">
<path d="M24.929 9.5498H15.07C13.4608 9.55245 11.9182 10.193 10.7804 11.3309C9.64263 12.4689 9.00238 14.0116 9 15.6208V25.4788C9.00238 27.0882 9.64277 28.631 10.7808 29.769C11.9188 30.907 13.4616 31.5474 15.071 31.5498H24.929C26.5384 31.5474 28.0812 30.907 29.2192 29.769C30.3572 28.631 30.9976 27.0882 31 25.4788V15.6198C30.9974 14.0106 30.3569 12.468 29.2189 11.3302C28.0809 10.1924 26.5382 9.55218 24.929 9.5498ZM29.049 25.4788C29.0479 26.5712 28.6135 27.6185 27.8411 28.3909C27.0687 29.1633 26.0214 29.5977 24.929 29.5988H15.07C13.9778 29.5975 12.9307 29.163 12.1585 28.3906C11.3863 27.6182 10.9521 26.571 10.951 25.4788V15.6198C10.9523 14.5276 11.3869 13.4805 12.1592 12.7083C12.9316 11.9361 13.9788 11.5019 15.071 11.5008H24.928C26.0204 11.5019 27.0677 11.9363 27.8401 12.7087C28.6125 13.4811 29.0469 14.5284 29.048 15.6208L29.049 25.4788Z" fill="white"/>
<path d="M20 14.8816C18.497 14.8829 17.0559 15.4804 15.9929 16.543C14.9299 17.6057 14.3319 19.0466 14.33 20.5496C14.3313 22.053 14.9291 23.4944 15.9922 24.5574C17.0552 25.6205 18.4966 26.2183 20 26.2196C21.5032 26.218 22.9444 25.6201 24.0072 24.5571C25.07 23.4941 25.6677 22.0528 25.669 20.5496C25.6672 19.0466 25.0691 17.6057 24.0061 16.543C22.9432 15.4804 21.502 14.8829 19.999 14.8816M19.999 24.2666C19.0136 24.2655 18.0689 23.8735 17.3722 23.1767C16.6755 22.4798 16.2838 21.535 16.283 20.5496C16.2838 19.564 16.6757 18.619 17.3726 17.9221C18.0695 17.2252 19.0145 16.8334 20 16.8326C20.9856 16.8334 21.9306 17.2252 22.6275 17.9221C23.3244 18.619 23.7162 19.564 23.717 20.5496C23.7162 21.5352 23.3244 22.4801 22.6275 23.177C21.9306 23.8739 20.9856 24.2658 20 24.2666M25.907 13.2256C25.5278 13.2272 25.1646 13.3786 24.8965 13.6468C24.6285 13.9151 24.4773 14.2784 24.476 14.6576C24.476 15.0336 24.629 15.4026 24.896 15.6696C25.161 15.9356 25.531 16.0896 25.907 16.0896C26.284 16.0896 26.653 15.9356 26.919 15.6696C27.186 15.4026 27.339 15.0336 27.339 14.6576C27.339 14.2796 27.186 13.9106 26.919 13.6446C26.65 13.3771 26.2864 13.2265 25.907 13.2256Z" fill="white"/>
</svg>
