<svg width="20" height="21" viewBox="0 0 20 21" fill="none" xmlns="http://www.w3.org/2000/svg">
<path d="M3.33319 7.87384C3.33319 4.25049 6.46509 1.33333 10.3055 1.33333C14.1459 1.33333 17.2778 4.25049 17.2778 7.87384C17.2778 10.174 15.2505 13.9082 11.2 19.2237C10.8235 19.7176 10.1179 19.8129 9.62389 19.4365C9.54373 19.3754 9.47214 19.3038 9.41105 19.2237C5.36051 13.9082 3.33319 10.174 3.33319 7.87384ZM15.9284 7.87384C15.9284 5.01804 13.4212 2.68281 10.3055 2.68281C7.18981 2.68281 4.68267 5.01804 4.68267 7.87384C4.68267 9.7392 6.55564 13.2181 10.3055 18.1702C14.0554 13.2181 15.9284 9.7392 15.9284 7.87384Z" fill="white"/>
<path d="M10.3056 10.9596C8.69077 10.9596 7.38171 9.65052 7.38171 8.03571C7.38171 6.42089 8.69077 5.11183 10.3056 5.11183C11.9204 5.11183 13.2295 6.42089 13.2295 8.03571C13.2295 9.65052 11.9204 10.9596 10.3056 10.9596ZM10.3056 9.6101C11.1751 9.6101 11.88 8.90522 11.88 8.03571C11.88 7.16619 11.1751 6.46131 10.3056 6.46131C9.43607 6.46131 8.73119 7.16619 8.73119 8.03571C8.73119 8.90522 9.43607 9.6101 10.3056 9.6101Z" fill="white"/>
</svg>
