<svg width="230" height="39" viewBox="0 0 230 39" fill="none" xmlns="http://www.w3.org/2000/svg">
<g clip-path="url(#clip0_1_13)">
<path d="M3.41893 32.1947V22.7107H0.914062V17.825H3.41893V12.7477H9.33042V17.825H14.24V22.7107H9.33042V31.2367C9.33042 32.5779 9.93159 33.1526 11.2341 33.1526C12.3363 33.1526 13.3382 32.8652 14.1398 32.4821V37.0804C12.9374 37.7509 11.4345 38.2299 9.43061 38.2299C5.8236 38.2299 3.41893 36.8888 3.41893 32.1947Z" fill="black"/>
<path d="M17.0449 27.8837C17.0449 22.1359 21.3533 17.4418 27.365 17.4418C34.3786 17.4418 37.5848 22.6149 37.5848 28.3627C37.5848 28.8417 37.5848 29.3207 37.4847 29.8955H22.9564C23.5576 32.482 25.4613 33.8232 28.0663 33.8232C30.0702 33.8232 31.473 33.2484 33.1763 31.8115L36.5829 34.6854C34.579 36.9846 31.7735 38.4215 28.0663 38.4215C21.6539 38.3257 17.0449 34.1106 17.0449 27.8837ZM31.7735 26.351C31.3728 23.7644 29.8699 22.1359 27.365 22.1359C24.8601 22.1359 23.257 23.8602 22.8562 26.351H31.7735Z" fill="black"/>
<path d="M46.4027 27.6921L39.2889 17.825H45.7013L49.6089 23.6686L53.5165 17.825H59.7286L52.6148 27.5963L60.0292 37.8467H53.6167L49.4085 31.6199L45.2004 37.8467H38.9883L46.4027 27.6921Z" fill="black"/>
<path d="M63.6348 17.825H69.5463V20.6989C70.949 18.9745 72.6523 17.4418 75.6581 17.4418C80.1669 17.4418 82.772 20.3157 82.772 24.914V37.8467H76.8605V26.7342C76.8605 24.0518 75.5579 22.6149 73.2535 22.6149C70.949 22.6149 69.5463 23.956 69.5463 26.7342V37.9425H63.6348V17.825Z" fill="black"/>
<path d="M86.9805 27.8837C86.9805 22.1359 91.7898 17.4418 98.4027 17.4418C104.915 17.4418 109.725 22.0401 109.725 27.8837C109.725 33.6316 104.915 38.3257 98.3025 38.3257C91.7898 38.3257 86.9805 33.7274 86.9805 27.8837ZM103.813 27.8837C103.813 24.914 101.609 22.3275 98.3025 22.3275C94.8959 22.3275 92.892 24.8182 92.892 27.8837C92.892 30.8535 95.0962 33.44 98.4027 33.44C101.809 33.44 103.813 30.9493 103.813 27.8837Z" fill="black"/>
<path d="M113.934 17.825H119.845V20.6989C121.248 18.9745 123.051 17.4418 126.057 17.4418C128.762 17.4418 130.867 18.5913 131.969 20.6031C133.772 18.5913 135.976 17.4418 138.882 17.4418C143.291 17.4418 145.996 20.0283 145.996 24.8182V37.8467H140.084V26.7342C140.084 24.0518 138.882 22.6149 136.578 22.6149C134.373 22.6149 132.971 23.956 132.971 26.7342V37.9425H127.059V26.7342C127.059 24.0518 125.857 22.6149 123.552 22.6149C121.348 22.6149 119.945 23.956 119.945 26.7342V37.9425H114.034V17.825H113.934Z" fill="black"/>
<path d="M149.803 32.0989C149.803 27.6922 153.31 25.6805 158.219 25.6805C160.323 25.6805 161.826 26.0636 163.329 26.5426V26.1594C163.329 23.7645 161.826 22.5191 158.82 22.5191C156.516 22.5191 154.913 22.9023 153.009 23.5729L151.506 19.262C153.811 18.304 156.115 17.6334 159.622 17.6334C162.828 17.6334 165.233 18.4956 166.736 19.8368C168.339 21.3695 169.04 23.5729 169.04 26.2552V37.8468H163.329V35.6434C161.926 37.1762 159.922 38.23 157.017 38.23C153.109 38.23 149.803 36.1224 149.803 32.0989ZM163.529 30.8535V29.7998C162.527 29.3208 161.225 29.0334 159.722 29.0334C157.217 29.0334 155.614 29.9914 155.614 31.9073C155.614 33.4401 156.917 34.3023 158.82 34.3023C161.626 34.3023 163.529 32.8653 163.529 30.8535Z" fill="black"/>
<path d="M174.25 17.8248H180.161V21.8484C181.364 19.0702 183.368 17.2501 186.875 17.4417V23.3811H186.574C182.666 23.3811 180.161 25.6803 180.161 30.4702V37.8466H174.25V17.8248Z" fill="black"/>
<path d="M191.583 32.1947V22.7107H189.078V17.825H191.583V12.7477H197.494V17.825H202.404V22.7107H197.494V31.2367C197.494 32.5779 198.096 33.1526 199.398 33.1526C200.5 33.1526 201.502 32.8652 202.304 32.4821V37.0804C201.102 37.7509 199.599 38.2299 197.595 38.2299C193.988 38.2299 191.583 36.8888 191.583 32.1947Z" fill="black"/>
<path d="M229.556 16.1006L226.551 20.9863L220.539 17.6334V24.3392H214.527V17.6334L208.516 20.9863L205.51 16.1006L211.622 12.7477L205.61 9.39475L208.516 4.50906L214.527 7.86198V1.15613H220.539V7.86198L226.551 4.50906L229.456 9.39475L223.445 12.7477L229.556 16.1006Z" fill="black"/>
</g>
<defs>
<clipPath id="clip0_1_13">
<rect width="230" height="38" fill="white" transform="translate(0 0.5)"/>
</clipPath>
</defs>
</svg>
