<svg width="17" height="17" viewBox="0 0 17 17" fill="none" xmlns="http://www.w3.org/2000/svg">
<g clip-path="url(#clip0_1_99)">
<mask id="mask0_1_99" style="mask-type:luminance" maskUnits="userSpaceOnUse" x="0" y="0" width="17" height="17">
<path d="M16.27 0.5H0.27002V16.5H16.27V0.5Z" fill="white"/>
</mask>
<g mask="url(#mask0_1_99)">
<path d="M8.27002 0.5C6.68777 0.5 5.14106 0.969192 3.82546 1.84824C2.50987 2.72729 1.48449 3.97672 0.878986 5.43853C0.273486 6.90034 0.115059 8.50887 0.42374 10.0607C0.732422 11.6126 1.49435 13.038 2.61317 14.1569C3.73199 15.2757 5.15745 16.0376 6.7093 16.3463C8.26115 16.655 9.86968 16.4965 11.3315 15.891C12.7933 15.2855 14.0427 14.2602 14.9218 12.9446C15.8008 11.629 16.27 10.0822 16.27 8.5C16.2677 6.37897 15.4241 4.34547 13.9243 2.84568C12.4245 1.34589 10.391 0.502294 8.27002 0.5ZM14.9367 8.5C14.9375 9.80647 14.552 11.084 13.8287 12.172L13.034 11.3767C12.9717 11.3142 12.9367 11.2296 12.9367 11.1413V10.5C12.9367 9.96957 12.726 9.46086 12.3509 9.08579C11.9758 8.71071 11.4671 8.5 10.9367 8.5H8.93669C8.75988 8.5 8.59031 8.42976 8.46529 8.30474C8.34026 8.17971 8.27002 8.01014 8.27002 7.83333V7.5C8.27002 7.41159 8.30514 7.32681 8.36766 7.2643C8.43017 7.20179 8.51495 7.16667 8.60336 7.16667C9.04538 7.16667 9.46931 6.99107 9.78187 6.67851C10.0944 6.36595 10.27 5.94203 10.27 5.5V4.83333C10.27 4.74493 10.3051 4.66014 10.3676 4.59763C10.4301 4.53512 10.5149 4.5 10.6033 4.5H11.5227C11.9643 4.49874 12.3876 4.32339 12.7007 4.012L12.952 3.76067C13.5808 4.37938 14.0801 5.11709 14.4209 5.93078C14.7616 6.74447 14.937 7.61785 14.9367 8.5ZM1.63602 9.142L3.74136 11.2473C3.92663 11.4338 4.14708 11.5816 4.38992 11.6822C4.63277 11.7828 4.89317 11.8342 5.15602 11.8333H6.93669C7.1135 11.8333 7.28307 11.9036 7.40809 12.0286C7.53312 12.1536 7.60336 12.3232 7.60336 12.5V15.1327C6.07015 14.9762 4.63829 14.2941 3.55064 13.2022C2.463 12.1103 1.78654 10.6758 1.63602 9.142ZM8.93669 15.1327V12.5C8.93669 11.9696 8.72598 11.4609 8.3509 11.0858C7.97583 10.7107 7.46712 10.5 6.93669 10.5H5.15602C5.06837 10.5001 4.98156 10.4829 4.90057 10.4493C4.81958 10.4158 4.74599 10.3667 4.68402 10.3047L1.71202 7.33267C1.90281 6.24813 2.35985 5.22793 3.04214 4.36359C3.72443 3.49924 4.61063 2.81781 5.62122 2.38041C6.63181 1.94301 7.73518 1.76334 8.83233 1.85752C9.92948 1.9517 10.9861 2.31678 11.9073 2.92L11.758 3.06933C11.6953 3.13122 11.6108 3.16615 11.5227 3.16667H10.6033C10.1613 3.16667 9.73741 3.34226 9.42485 3.65482C9.11229 3.96738 8.93669 4.39131 8.93669 4.83333V5.5C8.93669 5.58841 8.90157 5.67319 8.83906 5.7357C8.77655 5.79821 8.69176 5.83333 8.60336 5.83333C8.16133 5.83333 7.73741 6.00893 7.42485 6.32149C7.11229 6.63405 6.93669 7.05797 6.93669 7.5V7.83333C6.93669 8.36377 7.1474 8.87247 7.52248 9.24755C7.89755 9.62262 8.40626 9.83333 8.93669 9.83333H10.9367C11.1135 9.83333 11.2831 9.90357 11.4081 10.0286C11.5331 10.1536 11.6033 10.3232 11.6033 10.5V11.1413C11.6046 11.5829 11.7799 12.0062 12.0913 12.3193L12.9827 13.2107C11.897 14.3001 10.4671 14.9794 8.93669 15.1327Z" fill="white"/>
</g>
</g>
<defs>
<clipPath id="clip0_1_99">
<rect width="16" height="16" fill="white" transform="translate(0.27002 0.5)"/>
</clipPath>
</defs>
</svg>
