<svg width="24" height="25" viewBox="0 0 24 25" fill="none" xmlns="http://www.w3.org/2000/svg">
<path d="M20.75 20H3.2501C2.55971 20 2.00009 19.4403 2.00009 18.75C2.00009 18.0597 2.55971 17.5 3.2501 17.5H20.75C21.4404 17.5 22.0001 18.0597 22.0001 18.75C22.0001 19.4403 21.4404 20 20.75 20ZM20.75 13.75H3.2501C2.55971 13.75 2.00009 13.1904 2.00009 12.5C2.00009 11.8097 2.55971 11.25 3.2501 11.25H20.75C21.4404 11.25 22.0001 11.8097 22.0001 12.5C22.0001 13.1904 21.4404 13.75 20.75 13.75ZM20.75 7.50001H3.2501C2.55971 7.50001 2.00009 6.94039 2.00009 6.25C2.00009 5.55962 2.55971 5 3.2501 5H20.75C21.4404 5 22.0001 5.55962 22.0001 6.25C22.0001 6.94039 21.4404 7.50001 20.75 7.50001Z" fill="#333333"/>
</svg>
