<svg width="26" height="25" viewBox="0 0 26 25" fill="none" xmlns="http://www.w3.org/2000/svg">
<path d="M23.5966 15.9853C20.7568 14.1955 17.4875 13.241 14.1466 13.241H14.0273C10.6625 13.241 7.39313 14.1955 4.57722 15.9853C3.9329 16.3671 3.57495 17.0353 3.57495 17.7751V19.8989C3.57495 21.0682 4.50563 22.0228 5.67495 22.0228H22.475C23.6205 22.0228 24.575 21.0682 24.575 19.8989V17.7751C24.575 17.0353 24.217 16.3671 23.5966 15.9853ZM22.6659 19.8989C22.6659 20.0182 22.5705 20.1137 22.475 20.1137H5.67495C5.5795 20.1137 5.48404 20.0182 5.48404 19.8989V17.7751C5.48404 17.7035 5.53177 17.6319 5.5795 17.5842C8.10904 15.9853 11.0205 15.1501 14.0034 15.1501H14.1227C17.1057 15.1501 20.0409 15.9853 22.5466 17.608C22.5943 17.6557 22.642 17.7035 22.642 17.7989V19.8989H22.6659Z" fill="#333333"/>
<path d="M9.78003 5.79545V8.18182C9.78003 10.5443 11.7129 12.4773 14.0754 12.4773C16.4379 12.4773 18.3709 10.5443 18.3709 8.18182V5.79545C18.3709 3.43295 16.4379 1.5 14.0754 1.5C11.7129 1.5 9.78003 3.43295 9.78003 5.79545ZM16.4618 5.79545V8.18182C16.4618 9.49432 15.3879 10.5682 14.0754 10.5682C12.7629 10.5682 11.6891 9.49432 11.6891 8.18182V5.79545C11.6891 4.48295 12.7629 3.40909 14.0754 3.40909C15.3879 3.40909 16.4618 4.48295 16.4618 5.79545Z" fill="#333333"/>
</svg>
