<svg width="20" height="20" viewBox="0 0 20 20" fill="none" xmlns="http://www.w3.org/2000/svg">
<mask id="mask0_1_56" style="mask-type:luminance" maskUnits="userSpaceOnUse" x="0" y="0" width="20" height="21">
<path d="M0 0.0399933H20V20.04H0V0.0399933Z" fill="white"/>
</mask>
<g mask="url(#mask0_1_56)">
<path d="M14.094 6.07699L13.864 5.89299C13.7976 5.8398 13.7203 5.802 13.6375 5.78232C13.5548 5.76263 13.4687 5.76155 13.3855 5.77915C13.3022 5.79675 13.224 5.83259 13.1563 5.8841C13.0886 5.9356 13.0332 6.00148 12.994 6.07699C12.925 6.23699 12.857 7.84099 12.857 8.11599V8.27599C12.857 8.50599 12.651 8.68899 12.421 8.64299C12.238 8.61999 12.101 8.43699 12.101 8.25299C12.078 5.50399 11.253 3.57899 9.695 2.13599C8.755 1.26499 7.633 0.485991 7.289 1.08199C7.197 1.24199 7.335 1.58599 7.495 2.02199C7.815 3.00599 6.831 4.58699 5.433 6.16799C4.127 7.65799 2.5 9.49099 2.5 12.218C2.5 15.884 5.96 19.206 9.763 19.206C13.566 19.206 17.027 15.884 17.027 12.217C17.027 9.90299 15.927 7.61199 14.094 6.07699ZM9.764 17.877C8.96847 17.8749 8.20613 17.5579 7.6436 16.9954C7.08107 16.4329 6.76411 15.6705 6.762 14.875C6.762 14.05 7.082 13.317 7.632 12.767L9.282 10.797C9.34348 10.7267 9.41927 10.6704 9.5043 10.6318C9.58933 10.5932 9.68162 10.5732 9.775 10.5732C9.86838 10.5732 9.96067 10.5932 10.0457 10.6318C10.1307 10.6704 10.2065 10.7267 10.268 10.797L11.918 12.767C12.444 13.317 12.788 14.05 12.788 14.875C12.765 16.525 11.413 17.877 9.764 17.877Z" fill="#FB5252"/>
</g>
</svg>
