<svg width="26" height="25" viewBox="0 0 26 25" fill="none" xmlns="http://www.w3.org/2000/svg">
<path fill-rule="evenodd" clip-rule="evenodd" d="M1.375 2.60002C1.375 1.9925 1.8675 1.5 2.47502 1.5H5.43101C5.95188 1.5 6.40135 1.86532 6.5078 2.3752L7.24374 5.90007H21.1753C22.3904 5.90007 23.3754 6.88506 23.3754 8.10011V12.8577C23.3754 13.8992 22.6452 14.7979 21.6257 15.0112L9.67209 17.5113C8.4827 17.76 7.31687 16.9975 7.06821 15.808L4.53693 3.70004H2.47502C1.8675 3.70004 1.375 3.20754 1.375 2.60002ZM8.99366 14.2815C9.11785 14.8763 9.7008 15.2578 10.2956 15.1335L20.3005 13.0416C20.8101 12.935 21.1753 12.4855 21.1753 11.9648V9.20012C21.1753 8.59261 20.6828 8.10011 20.0753 8.10011H7.70307L8.99366 14.2815Z" fill="#333333"/>
<path d="M8.37503 23.4999C9.47962 23.4999 10.3751 22.6045 10.3751 21.4999C10.3751 20.3953 9.47962 19.4999 8.37503 19.4999C7.27044 19.4999 6.375 20.3953 6.375 21.4999C6.375 22.6045 7.27044 23.4999 8.37503 23.4999Z" fill="#333333"/>
<path d="M18.375 23.4999C19.4796 23.4999 20.3751 22.6045 20.3751 21.4999C20.3751 20.3953 19.4796 19.4999 18.375 19.4999C17.2704 19.4999 16.375 20.3953 16.375 21.4999C16.375 22.6045 17.2704 23.4999 18.375 23.4999Z" fill="#333333"/>
</svg>
