<svg width="19" height="19" viewBox="0 0 19 19" fill="none" xmlns="http://www.w3.org/2000/svg">
<g clip-path="url(#clip0_1_383)">
<path fill-rule="evenodd" clip-rule="evenodd" d="M10.565 12.5446C10.565 14.4431 12.104 15.9821 14.0025 15.9821C15.901 15.9821 17.44 14.4431 17.44 12.5446H16.065C16.065 13.6837 15.1416 14.6071 14.0025 14.6071C12.8634 14.6071 11.94 13.6837 11.94 12.5446H10.565Z" fill="#333333"/>
<path fill-rule="evenodd" clip-rule="evenodd" d="M10.565 12.5445H17.44L14.6174 6.89934C14.3641 6.39261 13.6409 6.39261 13.3876 6.89933L10.565 12.5445ZM11.94 12.5445H16.065L14.0025 8.41949L11.94 12.5445Z" fill="#333333"/>
<path fill-rule="evenodd" clip-rule="evenodd" d="M0.940002 10.4821C0.940002 12.3806 2.47902 13.9196 4.3775 13.9196C6.27598 13.9196 7.815 12.3806 7.815 10.4821H6.44C6.44 11.6212 5.51658 12.5446 4.3775 12.5446C3.23842 12.5446 2.315 11.6212 2.315 10.4821H0.940002Z" fill="#333333"/>
<path fill-rule="evenodd" clip-rule="evenodd" d="M0.940002 10.482H7.815L4.99242 4.83684C4.73906 4.33011 4.01594 4.33011 3.76258 4.83683L0.940002 10.482ZM2.315 10.482H6.44L4.3775 6.35699L2.315 10.482Z" fill="#333333"/>
<path d="M7.1275 9.79443H1.6275V11.1695H7.1275V9.79443Z" fill="#333333"/>
<path d="M16.7525 11.8571H11.2525V13.2321H16.7525V11.8571Z" fill="#333333"/>
<path d="M15.1446 4.07788L4.95346 1.67999C4.616 1.60058 4.2682 1.76348 4.11316 2.07356C3.89725 2.50536 4.1409 3.02556 4.61084 3.13613L14.8019 5.53403C15.1394 5.61344 15.4872 5.45053 15.6422 5.14046C15.8581 4.70865 15.6145 4.18845 15.1446 4.07788Z" fill="#333333"/>
</g>
<defs>
<clipPath id="clip0_1_383">
<rect width="18" height="18" fill="white" transform="translate(0.190002 0.160034)"/>
</clipPath>
</defs>
</svg>
