<svg width="17" height="17" viewBox="0 0 17 17" fill="none" xmlns="http://www.w3.org/2000/svg">
<g clip-path="url(#clip0_1_34)">
<path fill-rule="evenodd" clip-rule="evenodd" d="M3.14668 6.98492C3.14668 4.34473 5.29565 2.19576 7.93585 2.19576C10.576 2.19576 12.725 4.34473 12.725 6.98492C12.725 9.62508 10.576 11.7741 7.93585 11.7741C5.29565 11.7741 3.14668 9.62508 3.14668 6.98492ZM15.4617 14.5108C15.5899 14.3825 15.662 14.2084 15.662 14.027C15.662 13.8457 15.5899 13.6716 15.4617 13.5433L12.7421 10.8237C13.6172 9.73573 14.0939 8.38119 14.0934 6.98492C14.0934 3.58941 11.3313 0.827423 7.93585 0.827423C4.54033 0.827423 1.77835 3.58941 1.77835 6.98492C1.77835 10.3804 4.54033 13.1424 7.93585 13.1424C9.33212 13.143 10.6867 12.6662 11.7747 11.7912L14.4943 14.5108C14.6225 14.639 14.7966 14.7111 14.9779 14.7111C15.1594 14.7111 15.3334 14.639 15.4617 14.5108Z" fill="#333333" fill-opacity="0.5"/>
</g>
<defs>
<clipPath id="clip0_1_34">
<rect width="16.42" height="16.42" fill="white" transform="translate(0.410004 0.279999)"/>
</clipPath>
</defs>
</svg>
