<svg width="21" height="21" viewBox="0 0 21 21" fill="none" xmlns="http://www.w3.org/2000/svg">
<path fill-rule="evenodd" clip-rule="evenodd" d="M1.45953 3.09287C1.45953 2.61072 1.8504 2.21985 2.33256 2.21985H4.67858C5.09197 2.21985 5.44871 2.50978 5.53318 2.91445L6.11726 5.71197H17.1741C18.1384 5.71197 18.9201 6.4937 18.9201 7.45803V11.2338C18.9201 12.0605 18.3406 12.7737 17.5315 12.943L8.04452 14.9273C7.10056 15.1246 6.1753 14.5195 5.97795 13.5755L3.969 3.96591H2.33256C1.8504 3.96591 1.45953 3.57504 1.45953 3.09287ZM7.50609 12.3639C7.60465 12.836 8.06732 13.1388 8.53937 13.0401L16.4797 11.3798C16.8842 11.2953 17.1741 10.9385 17.1741 10.5252V8.33106C17.1741 7.8489 16.7832 7.45803 16.301 7.45803H6.48181L7.50609 12.3639Z" fill="#333333"/>
<path d="M7.01542 19.6802C7.89208 19.6802 8.60275 18.9695 8.60275 18.0929C8.60275 17.2163 7.89208 16.5056 7.01542 16.5056C6.13877 16.5056 5.4281 17.2163 5.4281 18.0929C5.4281 18.9695 6.13877 19.6802 7.01542 19.6802Z" fill="#333333"/>
<path d="M14.9516 19.6802C15.8283 19.6802 16.539 18.9695 16.539 18.0929C16.539 17.2163 15.8283 16.5056 14.9516 16.5056C14.075 16.5056 13.3643 17.2163 13.3643 18.0929C13.3643 18.9695 14.075 19.6802 14.9516 19.6802Z" fill="#333333"/>
</svg>
