<svg width="40" height="41" viewBox="0 0 40 41" fill="none" xmlns="http://www.w3.org/2000/svg">
<path fill-rule="evenodd" clip-rule="evenodd" d="M25.082 12.5498C27.882 12.5498 29.348 12.9348 30.142 13.8798C30.94 14.8268 31 16.2798 31 18.3868V22.1958C31 24.6108 30.62 26.0058 29.726 26.8598C28.856 27.6928 27.51 28.0328 25.082 28.0328H14.918C9.915 28.0328 9 26.0668 9 22.1958V18.3868C9 16.3888 9 14.9448 9.771 13.9648C10.563 12.9598 12.053 12.5498 14.918 12.5498H25.082ZM18.508 23.2298L23.124 20.8168C23.2387 20.7565 23.3348 20.666 23.4017 20.555C23.4686 20.444 23.5039 20.3168 23.5037 20.1872C23.5035 20.0576 23.4678 19.9305 23.4005 19.8198C23.3332 19.709 23.2369 19.6187 23.122 19.5588L18.507 17.1618C18.3988 17.1057 18.278 17.0783 18.1561 17.0824C18.0343 17.0865 17.9155 17.1219 17.8114 17.1852C17.7072 17.2485 17.621 17.3376 17.5612 17.4438C17.5015 17.5501 17.47 17.6699 17.47 17.7918V22.5998C17.4699 22.7219 17.5014 22.8419 17.5612 22.9482C17.621 23.0546 17.7073 23.1437 17.8116 23.2071C17.916 23.2704 18.0348 23.3057 18.1568 23.3097C18.2788 23.3137 18.3998 23.2862 18.508 23.2298Z" fill="white"/>
</svg>
