<svg width="26" height="25" viewBox="0 0 26 25" fill="none" xmlns="http://www.w3.org/2000/svg">
<path d="M19.7153 3.91305C18.438 3.36697 16.9638 3.36697 15.6865 3.91305C15.0479 4.1861 14.4677 4.5863 13.9789 5.0908L12.9647 6.13732L11.9505 5.0908C10.9634 4.07223 9.62457 3.5 8.22858 3.5C6.83258 3.5 5.49377 4.07223 4.50665 5.0908C3.51953 6.10938 2.96497 7.49086 2.96497 8.93134C2.96497 13.6851 9.96497 19.4995 12.9647 21.4995C15.965 19.4995 20.9545 15.0187 22.5642 11.0099C23.0934 9.69198 23.0934 8.1707 22.5642 6.85275C22.035 5.5348 20.9925 4.45915 19.7153 3.91305Z" stroke="#333333" stroke-width="2" stroke-linecap="round" stroke-linejoin="round"/>
</svg>
